<svg width="31" height="30" viewBox="0 0 31 30" fill="none" xmlns="http://www.w3.org/2000/svg">
<path d="M11.75 2.8125H6.125C4.5717 2.8125 3.3125 4.0717 3.3125 5.625V11.25C3.3125 12.8033 4.5717 14.0625 6.125 14.0625H11.75C13.3033 14.0625 14.5625 12.8033 14.5625 11.25V5.625C14.5625 4.0717 13.3033 2.8125 11.75 2.8125Z" fill="black"/>
<path d="M24.875 2.8125H19.25C17.6967 2.8125 16.4375 4.0717 16.4375 5.625V11.25C16.4375 12.8033 17.6967 14.0625 19.25 14.0625H24.875C26.4283 14.0625 27.6875 12.8033 27.6875 11.25V5.625C27.6875 4.0717 26.4283 2.8125 24.875 2.8125Z" fill="black"/>
<path d="M11.75 15.9375H6.125C4.5717 15.9375 3.3125 17.1967 3.3125 18.75V24.375C3.3125 25.9283 4.5717 27.1875 6.125 27.1875H11.75C13.3033 27.1875 14.5625 25.9283 14.5625 24.375V18.75C14.5625 17.1967 13.3033 15.9375 11.75 15.9375Z" fill="black"/>
<path d="M22.0625 27.1875C25.1691 27.1875 27.6875 24.6691 27.6875 21.5625C27.6875 18.4559 25.1691 15.9375 22.0625 15.9375C18.9559 15.9375 16.4375 18.4559 16.4375 21.5625C16.4375 24.6691 18.9559 27.1875 22.0625 27.1875Z" fill="#999999"/>
</svg>
