<svg width="25" height="24" viewBox="0 0 25 24" fill="none" xmlns="http://www.w3.org/2000/svg">
<g clip-path="url(#clip0_6459_4606)">
<path d="M13.0785 6.73528L7.24687 0.451828C7.12279 0.318141 6.91125 0.318141 6.78717 0.451828L0.955448 6.73528C0.769214 6.93595 0.911527 7.2622 1.18532 7.2622H3.08985C3.53812 7.2622 3.9015 7.62558 3.9015 8.07384V22.666C3.9015 23.2086 4.34137 23.6484 4.88395 23.6484H9.15004C9.69267 23.6484 10.1325 23.2086 10.1325 22.666V8.07384C10.1325 7.62558 10.4959 7.2622 10.9441 7.2622H12.8487C13.1225 7.2622 13.2648 6.93595 13.0785 6.73528Z" fill="#8BC852"/>
<path d="M8.94437 8.0738V22.6659C8.94437 23.2086 8.50449 23.6484 7.96191 23.6484H9.15062C9.69324 23.6484 10.1331 23.2085 10.1331 22.6659V8.0738C10.1331 7.62554 10.4964 7.26221 10.9447 7.26221H9.75601C9.30774 7.26216 8.94437 7.62554 8.94437 8.0738Z" fill="#7DBE3B"/>
<path d="M13.0787 6.73528L7.24706 0.451828C7.12298 0.318141 6.91143 0.318141 6.78735 0.451828L6.42285 0.844547L11.8901 6.73528C12.0763 6.93595 11.934 7.26225 11.6602 7.26225H12.8489C13.1226 7.2622 13.265 6.93595 13.0787 6.73528Z" fill="#7DBE3B"/>
<path d="M24.0444 17.2647L18.2126 23.5482C18.0886 23.6819 17.877 23.6819 17.7529 23.5482L11.9213 17.2647C11.735 17.064 11.8773 16.7378 12.1511 16.7378H14.0557C14.5039 16.7378 14.8673 16.3744 14.8673 15.9262V1.33402C14.8673 0.791391 15.3072 0.351562 15.8498 0.351562H20.1159C20.6585 0.351562 21.0983 0.791438 21.0983 1.33402V15.9262C21.0983 16.3744 21.4617 16.7378 21.91 16.7378H23.8145C24.0883 16.7378 24.2306 17.064 24.0444 17.2647Z" fill="#D82E3D"/>
<path d="M19.9092 15.9262V1.33402C19.9092 0.791391 19.4693 0.351562 18.9268 0.351562H20.1155C20.6581 0.351562 21.0979 0.791438 21.0979 1.33402V15.9262C21.0979 16.3744 21.4613 16.7377 21.9096 16.7377H20.7209C20.2726 16.7377 19.9092 16.3744 19.9092 15.9262Z" fill="#C32430"/>
<path d="M24.0436 17.2648L18.2119 23.5482C18.0878 23.6819 17.8763 23.6819 17.7522 23.5482L17.3877 23.1555L22.8549 17.2648C23.0411 17.0641 22.8988 16.7378 22.625 16.7378H23.8137C24.0875 16.7378 24.2299 17.0641 24.0436 17.2648Z" fill="#C32430"/>
<path d="M7.01636 3.33887C6.8222 3.33887 6.6648 3.49623 6.6648 3.69043V4.35718H5.99805C5.80389 4.35718 5.64648 4.51454 5.64648 4.70874C5.64648 4.90295 5.80389 5.0603 5.99805 5.0603H6.6648V5.7271C6.6648 5.92131 6.8222 6.07866 7.01636 6.07866C7.21052 6.07866 7.36792 5.92131 7.36792 5.7271V5.0603H8.03467C8.22883 5.0603 8.38623 4.90295 8.38623 4.70874C8.38623 4.51454 8.22883 4.35718 8.03467 4.35718H7.36792V3.69043C7.36792 3.49623 7.21052 3.33887 7.01636 3.33887Z" fill="black"/>
<path d="M16.9639 18.9399C16.7697 18.9399 16.6123 19.0973 16.6123 19.2915C16.6123 19.4857 16.7697 19.6431 16.9639 19.6431H19.0004C19.1946 19.6431 19.352 19.4857 19.352 19.2915C19.352 19.0973 19.1946 18.9399 19.0004 18.9399H16.9639Z" fill="black"/>
<path d="M24.424 16.7855C24.3165 16.5392 24.083 16.3862 23.8143 16.3862H21.9097C21.656 16.3862 21.4497 16.1798 21.4497 15.9262V6.65597C21.4497 6.46177 21.2923 6.30441 21.0981 6.30441C20.9039 6.30441 20.7465 6.46177 20.7465 6.65597V15.9262C20.7465 16.5676 21.2683 17.0894 21.9097 17.0894H23.7272L17.9826 23.2791L12.2379 17.0894H14.0554C14.6968 17.0894 15.2186 16.5675 15.2186 15.9262V1.33402C15.2186 0.986156 15.5016 0.703125 15.8495 0.703125H20.1156C20.4635 0.703125 20.7465 0.986156 20.7465 1.33402V5.25033C20.7465 5.44453 20.9038 5.60189 21.0981 5.60189C21.2923 5.60189 21.4496 5.44453 21.4496 5.25033V1.33402C21.4497 0.598453 20.8512 0 20.1156 0H15.8496C15.114 0 14.5155 0.598453 14.5155 1.33402V15.9262C14.5155 16.1798 14.3091 16.3862 14.0555 16.3862H12.1509C11.8823 16.3862 11.6487 16.5392 11.5413 16.7855C11.4339 17.0317 11.4807 17.307 11.6634 17.5039L17.4951 23.7874C17.6206 23.9226 17.7983 24 17.9827 24C18.1671 24 18.3448 23.9225 18.4701 23.7873L24.3018 17.5039C24.4846 17.307 24.5314 17.0317 24.424 16.7855Z" fill="black"/>
<path d="M13.4581 7.21458C13.5656 6.96834 13.5188 6.69305 13.3361 6.49613L7.5043 0.212625C7.37886 0.0774844 7.20116 0 7.0168 0C6.8324 0 6.65469 0.0774844 6.52925 0.212672L3.7655 3.19055C3.63341 3.33281 3.64171 3.55528 3.78402 3.68738C3.92638 3.81947 4.14885 3.81127 4.28085 3.66881L7.01676 0.720891L12.7615 6.91064H10.9439C10.3026 6.91064 9.78079 7.43245 9.78079 8.0738V22.6659C9.78079 23.0138 9.49776 23.2968 9.1499 23.2968H4.8838C4.53594 23.2968 4.25291 23.0138 4.25291 22.6659V8.07384C4.25291 7.43245 3.7311 6.91069 3.08971 6.91069H1.27208L3.32394 4.69983C3.45604 4.55756 3.44774 4.33509 3.30543 4.203C3.16311 4.071 2.94065 4.0792 2.8086 4.22156L0.697583 6.49613C0.514865 6.69305 0.468036 6.96834 0.575474 7.21458C0.682911 7.46081 0.91649 7.61381 1.18513 7.61381H3.08966C3.34335 7.61381 3.54974 7.82016 3.54974 8.07384V22.666C3.54974 23.4015 4.14819 24 4.88376 24H9.14985C9.88546 24 10.4839 23.4015 10.4839 22.666V8.07384C10.4839 7.82016 10.6903 7.61381 10.9439 7.61381H12.8484C13.1171 7.61381 13.3507 7.46086 13.4581 7.21458Z" fill="black"/>
</g>
<defs>
<clipPath id="clip0_6459_4606">
<rect width="24" height="24" fill="white" transform="translate(0.5)"/>
</clipPath>
</defs>
</svg>
