<svg width="30" height="30" viewBox="0 0 30 30" fill="none" xmlns="http://www.w3.org/2000/svg">
<g clip-path="url(#clip0_6459_4474)">
<path d="M0.157031 29.6221C0.237911 29.7387 0.345817 29.8339 0.471526 29.8997C0.597235 29.9656 0.73701 30 0.878906 30H29.1211C29.2631 30 29.403 29.9656 29.5288 29.8998C29.6546 29.834 29.7626 29.7386 29.8435 29.6219C29.9244 29.5053 29.9758 29.3707 29.9934 29.2298C30.011 29.0889 29.9941 28.9459 29.9443 28.8129C29.6016 27.8971 28.9611 27.0937 28.7016 26.7914C28.6191 26.6951 28.5167 26.6178 28.4015 26.5648C28.2863 26.5118 28.161 26.4844 28.0342 26.4844H1.96582C1.83911 26.4845 1.71392 26.5119 1.59883 26.5649C1.48374 26.6179 1.38147 26.6952 1.29902 26.7914C1.03887 27.0937 0.398437 27.8971 0.0585931 28.8129C0.00885294 28.9459 -0.00790771 29.089 0.00974607 29.2299C0.0273999 29.3709 0.0789422 29.5054 0.15996 29.6221H0.157031Z" fill="#134971"/>
<path d="M3.51562 14.1211H8.84766V24.7266H3.51562V14.1211Z" fill="#134971"/>
<path d="M12.3633 14.1211H17.6367V24.7266H12.3633V14.1211Z" fill="#134971"/>
<path d="M21.1523 14.1211H26.4844V24.7266H21.1523V14.1211Z" fill="#134971"/>
<path d="M1.90254 12.1043C2.06763 12.269 2.29099 12.3621 2.52422 12.3633H27.4758C27.709 12.3621 27.9324 12.269 28.0975 12.1043C28.2768 11.9256 29.6133 10.534 30 8.84766H0C0.387305 10.534 1.72324 11.9256 1.90254 12.1043Z" fill="#134971"/>
<path d="M29.4404 7.08962L15.3932 0.092353C15.2711 0.0312984 15.1365 -0.000488281 15 -0.000488281C14.8635 -0.000488281 14.7289 0.0312984 14.6068 0.092353L0.55957 7.08962H29.4404Z" fill="#134971"/>
</g>
<defs>
<clipPath id="clip0_6459_4474">
<rect width="30" height="30" fill="white"/>
</clipPath>
</defs>
</svg>
