<svg width="31" height="30" viewBox="0 0 31 30" fill="none" xmlns="http://www.w3.org/2000/svg">
<path d="M24.4707 27.4621L22.5312 28.0691L20.8555 28.5936H12.0541L10.3438 23.1291L4.71875 5.15605L10.3438 3.39531L16.3496 1.51562L22.5312 21.2658L24.4707 27.4621Z" fill="#379A6B"/>
<path d="M20.3592 25.3111L20.7792 26.6532L15.411 28.3333L14.9909 26.9913L13.6489 27.4113L7.48828 7.72785L8.83031 7.30785L8.41031 5.96576L13.7785 4.28564L14.1986 5.62768L15.5406 5.20762L21.7012 24.8911L20.3592 25.3111Z" fill="#44C086"/>
<path d="M10.3438 1.40625H22.5312V28.5938H10.3438V1.40625Z" fill="#3BA673"/>
<path d="M19.25 25.3125V26.7188H13.625V25.3125H12.2188V4.6875H13.625V3.28125H19.25V4.6875H20.6562V25.3125H19.25Z" fill="#44C086"/>
<path d="M16.4375 17.3438C17.7319 17.3438 18.7812 16.2944 18.7812 15C18.7812 13.7056 17.7319 12.6562 16.4375 12.6562C15.1431 12.6562 14.0938 13.7056 14.0938 15C14.0938 16.2944 15.1431 17.3438 16.4375 17.3438Z" fill="#3BA673"/>
<path d="M26.2817 17.3438V28.5938H23.0005C21.7573 28.5938 20.565 28.0999 19.6859 27.2208C18.8068 26.3417 18.313 25.1495 18.313 23.9062H18.3224L15.2813 19.406C15.0029 18.9939 14.8996 18.4882 14.9941 17.9999C15.0886 17.5117 15.3732 17.081 15.7853 16.8026C16.1973 16.5242 16.7031 16.4209 17.1913 16.5154C17.6795 16.6099 18.1102 16.8945 18.3886 17.3065L21.1255 21.0938H22.5317V9.84375L26.0611 16.4614C26.206 16.7329 26.2817 17.036 26.2817 17.3438Z" fill="#FFCEA7"/>
</svg>
