<svg width="30" height="30" viewBox="0 0 30 30" fill="none" xmlns="http://www.w3.org/2000/svg">
<path d="M28.0629 19.811L7.43041 23.449C6.15564 23.6738 4.94006 22.8226 4.71529 21.5479L2.4442 8.66801C2.21943 7.39324 3.07062 6.17766 4.34533 5.95289L24.9778 2.3148C26.2526 2.09004 27.4682 2.94123 27.6929 4.21594L29.964 17.0958C30.1889 18.3705 29.3377 19.5862 28.0629 19.811Z" fill="#757676"/>
<path d="M24.9774 2.3148L14.6611 4.13385L17.7462 21.6301L28.0624 19.811C29.3372 19.5862 30.1884 18.3707 29.9635 17.0959L27.6924 4.216C27.4677 2.94123 26.2521 2.09004 24.9774 2.3148Z" fill="#1B3555"/>
<path d="M22.8516 27.7213H2.34375C1.04936 27.7213 0 26.6719 0 25.3775V12.6206C0 11.3262 1.04936 10.2769 2.34375 10.2769H22.8516C24.146 10.2769 25.1953 11.3262 25.1953 12.6206V25.3775C25.1953 26.6719 24.146 27.7213 22.8516 27.7213Z" fill="#53D8E3"/>
<path d="M22.8516 10.2769H12.5977V27.7213H22.8516C24.146 27.7213 25.1953 26.6719 25.1953 25.3775V12.6206C25.1953 11.3262 24.146 10.2769 22.8516 10.2769Z" fill="#18A8C9"/>
<path d="M0 14.2642H25.1953V18.2515H0V14.2642Z" fill="#ECF6FD"/>
<path d="M6.97754 23.8516H2.99023C2.50484 23.8516 2.11133 24.2451 2.11133 24.7305C2.11133 25.2159 2.50484 25.6094 2.99023 25.6094H6.97754C7.46293 25.6094 7.85645 25.2159 7.85645 24.7305C7.85645 24.2451 7.46293 23.8516 6.97754 23.8516Z" fill="#EAF6FF"/>
<path d="M12.5977 14.2642H25.1953V18.2515H12.5977V14.2642Z" fill="#D6E8FE"/>
</svg>
