<svg width="31" height="30" viewBox="0 0 31 30" fill="none" xmlns="http://www.w3.org/2000/svg">
<path fill-rule="evenodd" clip-rule="evenodd" d="M23.9 2H7.1C4.02 2 1.5 4.52 1.5 7.6C1.5 9.98 2.9 11.94 5 12.78V7.6C5 7.04 5.28 6.48 5.56 6.06C5.84 5.64 6.54 5.5 7.1 5.5H23.9C24.46 5.5 25.02 5.78 25.44 6.06C25.86 6.34 26 7.04 26 7.6V12.78C28.1 11.94 29.5 9.98 29.5 7.6C29.5 4.52 26.98 2 23.9 2ZM23.9 24.4V7.6H7.1V24.4C7.1 25.94 8.36 27.2 9.9 27.2H21.1C22.64 27.2 23.9 25.94 23.9 24.4ZM14.38 15.16L13.4 16.14C12.98 16.56 12.28 16.56 11.86 16.14C11.44 15.72 11.44 15.02 11.86 14.6L13.68 12.78C14.66 11.8 16.2 11.8 17.18 12.78L19 14.6C19.42 15.02 19.42 15.72 19 16.14C18.58 16.56 17.88 16.56 17.46 16.14L16.48 15.16V21.04C16.48 21.6 16.06 22.16 15.36 22.16C14.66 22.16 14.24 21.74 14.24 21.04V15.16H14.38Z" fill="#A90303"/>
</svg>
