<svg width="31" height="30" viewBox="0 0 31 30" fill="none" xmlns="http://www.w3.org/2000/svg">
<path d="M9.39054 13.2429H25.4288C25.8405 13.2419 26.235 13.0775 26.5256 12.7859C26.8163 12.4944 26.9795 12.0994 26.9793 11.6877V3.43021C26.9795 3.0185 26.8163 2.62354 26.5256 2.33198C26.235 2.04043 25.8405 1.87608 25.4288 1.875H9.39054C8.97834 1.87589 8.58328 2.04003 8.29182 2.3315C8.00035 2.62296 7.83621 3.01802 7.83532 3.43021V11.6877C7.83621 12.0999 8.00035 12.495 8.29182 12.7864C8.58328 13.0779 8.97834 13.242 9.39054 13.2429ZM9.83026 5.4946C9.8344 5.11304 10.1965 4.96887 10.5246 5.05491C10.6484 5.05481 10.771 5.02941 10.8847 4.98027C10.9984 4.93112 11.1008 4.85927 11.1858 4.76912C11.2707 4.67897 11.3363 4.57242 11.3786 4.456C11.4209 4.33958 11.439 4.21575 11.4318 4.0921C11.4164 4.02394 11.4166 3.95322 11.4322 3.88514C11.4479 3.81705 11.4786 3.75335 11.5221 3.69872C11.5657 3.64408 11.6209 3.59992 11.6838 3.56947C11.7466 3.53902 11.8155 3.52307 11.8854 3.52279H22.9339C22.9985 3.52297 23.0624 3.53665 23.1213 3.56295C23.1803 3.58926 23.2332 3.62761 23.2764 3.67555C23.325 3.73219 23.3603 3.79905 23.3795 3.87116C23.3987 3.94327 23.4015 4.01879 23.3875 4.09211C23.3795 4.21593 23.3971 4.34006 23.4392 4.4568C23.4812 4.57354 23.5468 4.68038 23.6319 4.77068C23.717 4.86098 23.8197 4.93281 23.9338 4.9817C24.0478 5.03059 24.1707 5.0555 24.2948 5.05487C24.3692 5.02453 24.4499 5.01242 24.53 5.01955C24.61 5.02668 24.6873 5.05285 24.7552 5.09588C24.8231 5.1389 24.8798 5.19754 24.9205 5.2669C24.9612 5.33626 24.9847 5.41434 24.9891 5.49463V9.62333C24.9847 9.70363 24.9612 9.78171 24.9205 9.85108C24.8798 9.92045 24.8231 9.97909 24.7552 10.0221C24.6873 10.0651 24.61 10.0913 24.5299 10.0984C24.4498 10.1055 24.3692 10.0934 24.2947 10.063C24.0518 10.0636 23.8191 10.1603 23.6473 10.3321C23.4756 10.5038 23.3788 10.7366 23.3783 10.9795C23.3994 11.0498 23.404 11.1241 23.3918 11.1965C23.3797 11.2689 23.351 11.3375 23.308 11.397C23.2651 11.4565 23.209 11.5054 23.1441 11.5397C23.0792 11.5741 23.0073 11.593 22.9339 11.5951H11.8854C11.82 11.5955 11.7554 11.582 11.6955 11.5557C11.6357 11.5294 11.5821 11.4908 11.5382 11.4424C11.4864 11.3785 11.4501 11.3034 11.4325 11.223C11.4148 11.1427 11.4161 11.0593 11.4364 10.9795C11.4369 10.7371 11.3411 10.5044 11.1701 10.3326C10.9992 10.1607 10.767 10.0638 10.5246 10.0631C10.2034 10.1477 9.82819 10.0059 9.83028 9.6233L9.83026 5.4946ZM12.339 10.6694H22.4803C22.5473 10.2804 22.7371 9.92309 23.022 9.64986C23.3069 9.37664 23.6719 9.20187 24.0633 9.1512V5.96206C23.6719 5.91318 23.3067 5.73961 23.0216 5.46702C22.7365 5.19444 22.5467 4.83733 22.4803 4.44852H12.339C12.2726 4.83733 12.0828 5.19444 11.7977 5.46702C11.5127 5.7396 11.1474 5.91318 10.756 5.96206V9.1512C11.1475 9.20188 11.5124 9.37664 11.7973 9.64987C12.0822 9.92309 12.272 10.2804 12.339 10.6694ZM17.4073 4.94842C18.0878 4.96065 18.7357 5.24242 19.2087 5.73186C19.6816 6.2213 19.941 6.87842 19.9299 7.55895C19.939 7.89593 19.8805 8.23131 19.7578 8.54529C19.6351 8.85927 19.4507 9.14548 19.2155 9.38703C18.9804 9.62858 18.6992 9.82057 18.3887 9.95166C18.0781 10.0827 17.7444 10.1503 17.4073 10.1503C17.0702 10.1503 16.7365 10.0827 16.426 9.95164C16.1154 9.82054 15.8342 9.62855 15.5991 9.387C15.364 9.14545 15.1796 8.85923 15.0569 8.54525C14.9342 8.23127 14.8757 7.89589 14.8847 7.55891C14.8744 6.87861 15.1341 6.22196 15.6069 5.7327C16.0797 5.24344 16.7271 4.96144 17.4073 4.94842ZM17.4073 5.87415C19.5166 5.94287 19.5171 9.1747 17.4073 9.24378C15.2981 9.17507 15.2975 5.9432 17.4073 5.87415ZM27.6135 18.0752C26.0404 21.1006 23.7602 23.7015 20.9668 25.6569L19.3328 26.7586C18.9346 27.0365 18.4729 27.2102 17.9901 27.2635C17.5074 27.3169 17.0189 27.2483 16.5696 27.064L12.3729 25.3201C12.1722 25.0966 11.9068 24.8133 11.7095 24.5878C11.0262 22.7902 9.2859 17.6648 8.57125 15.946C10.3903 14.1779 12.4408 13.965 14.4219 15.3675C15.9234 16.5425 18.9899 17.3452 20.8417 17.9826C22.7378 18.6447 22.1657 21.8404 20.1243 21.5606C20.1243 21.5606 17.717 21.1158 16.612 20.9135C16.4927 20.8938 16.3705 20.9218 16.2716 20.9914C16.1727 21.061 16.1051 21.1666 16.0834 21.2855C16.0617 21.4045 16.0876 21.5272 16.1554 21.6272C16.2233 21.7273 16.3278 21.7967 16.4463 21.8204C16.6222 21.8426 20.3422 22.5808 20.3789 22.5048C21.0848 22.4756 21.7505 22.168 22.2302 21.6493C22.7098 21.1305 22.9646 20.4429 22.9386 19.7369C22.93 19.1445 22.75 18.5674 22.4202 18.0752L24.9659 15.3073C25.2136 15.0145 25.5619 14.8251 25.9422 14.7763C26.3226 14.7274 26.7074 14.8228 27.021 15.0435C27.8992 15.6362 28.1544 17.1165 27.6135 18.0752ZM9.90894 27.1751L8.35837 27.9481C8.16312 28.0507 7.94809 28.1101 7.72786 28.1224C7.50762 28.1346 7.28733 28.0994 7.0819 28.0191C6.87648 27.9388 6.69071 27.8152 6.5372 27.6568C6.38368 27.4985 6.266 27.3089 6.19213 27.1011L3.20668 18.7973C3.06073 18.37 3.07456 17.9043 3.24562 17.4865C3.41667 17.0686 3.73337 16.7269 4.13704 16.5246L5.68763 15.7516C5.88586 15.6473 6.10432 15.5871 6.32802 15.5751C6.55172 15.5631 6.77536 15.5997 6.9836 15.6822C7.77445 15.9449 7.95524 16.9356 8.22411 17.6262C8.68684 18.9159 10.2543 23.2598 10.7097 24.5461C10.8319 24.7708 10.9081 25.0176 10.9339 25.2721C10.9597 25.5266 10.9346 25.7837 10.8601 26.0283C10.7856 26.273 10.6631 26.5005 10.4998 26.6973C10.3365 26.8942 10.1356 27.0566 9.90894 27.1751Z" fill="url(#paint0_linear_6459_4638)"/>
<defs>
<linearGradient id="paint0_linear_6459_4638" x1="3.10309" y1="15" x2="27.8962" y2="15" gradientUnits="userSpaceOnUse">
<stop stop-color="#00C0FF"/>
<stop offset="1" stop-color="#5558FF"/>
</linearGradient>
</defs>
</svg>
