<svg width="30" height="24" viewBox="0 0 30 24" fill="none" xmlns="http://www.w3.org/2000/svg">
<g clip-path="url(#clip0_6459_4457)">
<path d="M19.5584 21.9602C19.0863 22.1457 18.675 22.335 18.2477 22.4726C13.814 23.9034 8.89675 22.5243 5.94168 18.7642C5.09506 17.6911 4.45428 16.4706 4.05171 15.1644C3.97569 14.9128 3.81603 14.874 3.59556 14.8763C2.74713 14.8831 1.89946 14.8763 1.05179 14.8892C0.774297 14.8945 0.671664 14.8215 0.686869 14.5258C0.711576 14.034 0.711576 13.5412 0.686869 13.0494C0.672424 12.7354 0.775057 12.6381 1.0936 12.6396C3.86545 12.651 6.63654 12.6472 9.40839 12.6472C9.96641 12.6472 9.97173 12.6419 9.97097 12.071C9.96638 11.995 9.96638 11.9188 9.97097 11.8429C10.0143 11.4856 9.87442 11.3617 9.5019 11.3632C6.71713 11.3784 3.93311 11.367 1.1491 11.3814C0.788741 11.3814 0.653418 11.2993 0.683828 10.9169C0.710065 10.4378 0.710065 9.95763 0.683828 9.47853C0.675465 9.22841 0.765174 9.14707 1.01301 9.15087C1.79759 9.16227 2.58292 9.14022 3.36977 9.15999C3.75902 9.16987 3.92323 9.05051 4.04335 8.64454C4.46728 7.2115 5.18382 5.88197 6.1477 4.73993C7.54639 3.05612 9.4108 1.82244 11.5074 1.19339C17.4525 -0.631199 23.8279 2.8454 25.4906 8.82016C25.5666 9.08396 25.7187 9.15391 25.9589 9.15315C26.7556 9.15315 27.5554 9.16227 28.3506 9.14935C28.6228 9.14478 28.7384 9.21245 28.7232 9.50894C28.6965 9.98829 28.6965 10.4687 28.7232 10.9481C28.7422 11.2841 28.6319 11.3784 28.2974 11.3769C25.6145 11.3639 22.9316 11.3677 20.2487 11.3677C19.5029 11.3677 19.5029 11.3677 19.5067 12.1029C19.5067 12.6465 19.5067 12.6457 20.0495 12.6457C22.8085 12.6457 25.5674 12.651 28.3263 12.6389C28.6517 12.6389 28.7384 12.7354 28.7201 13.0486C28.692 13.5279 28.692 14.0085 28.7201 14.4878C28.7406 14.8177 28.6198 14.8869 28.3119 14.8854C25.575 14.8747 22.8442 14.8793 20.1111 14.8793C19.5029 14.8793 19.5029 14.8793 19.5029 15.4814C19.5029 16.1101 19.5029 16.7389 19.5029 17.4246C18.8491 17.4246 18.2166 17.3805 17.5947 17.4375C17.0466 17.4885 16.7387 17.2976 16.4969 16.8172C16.2133 16.2554 15.8423 15.7384 15.5253 15.1925C15.3976 14.9713 15.2455 14.8679 14.981 14.8725C14.1964 14.8869 13.4118 14.8922 12.6242 14.8725C12.2806 14.8641 12.1848 15.0025 12.1939 15.3203C12.2106 15.9132 12.1939 16.5078 12.2038 17.1007C12.2084 17.3448 12.1323 17.4352 11.8777 17.4269C11.3592 17.4094 10.8392 17.4102 10.3214 17.4269C10.0478 17.4368 9.94132 17.3683 9.95273 17.0711C9.97705 16.4629 9.95272 15.8547 9.96261 15.2526C9.96261 14.9819 9.85541 14.8725 9.5764 14.8725C8.62762 14.8823 7.67579 14.8793 6.72929 14.8725C6.42519 14.8725 6.34004 14.9713 6.47461 15.2625C7.9951 18.5597 10.5305 20.4321 14.1736 20.7575C15.5208 20.8769 16.8193 20.6336 18.0668 20.1318C18.3116 20.0338 18.4256 20.0665 18.5503 20.2839C18.8696 20.8305 19.1988 21.3627 19.5584 21.9602ZM8.09317 9.14783C8.5744 9.14783 9.05564 9.12958 9.53763 9.15391C9.8805 9.17063 9.98161 9.02619 9.97629 8.70992C9.96413 7.96489 9.97629 7.21985 9.96565 6.47557C9.96109 6.21404 10.0417 6.11825 10.3146 6.12509C10.9735 6.14081 11.6324 6.14081 12.2912 6.12509C12.5193 6.11977 12.6668 6.19352 12.7839 6.38966C13.2712 7.20008 13.7722 8.00138 14.2572 8.81484C14.3948 9.04671 14.5613 9.15771 14.835 9.15163C15.5048 9.13794 16.1761 9.1311 16.8459 9.15163C17.1826 9.16303 17.2952 9.04063 17.2876 8.71525C17.2716 7.98313 17.2876 7.25102 17.2739 6.5189C17.2678 6.23609 17.3339 6.10609 17.654 6.12357C18.1468 6.15056 18.6407 6.15056 19.1334 6.12357C19.4657 6.10533 19.5318 6.23457 19.5227 6.53791C19.5014 7.28219 19.5166 8.02723 19.5151 8.7715C19.5151 8.98285 19.5569 9.15163 19.8192 9.15163C20.8561 9.15163 21.8934 9.15163 22.9309 9.15163C23.1551 9.15163 23.235 9.04139 23.1506 8.83613C23.0175 8.50922 22.8898 8.17851 22.7294 7.86453C20.9048 4.27466 16.8162 2.27293 12.9146 3.15786C9.7505 3.87705 7.59673 5.7731 6.36817 8.7487C6.23513 9.07028 6.33852 9.15771 6.65174 9.15087C7.13222 9.14098 7.61269 9.14783 8.09317 9.14783ZM13.947 12.6503C13.7471 12.312 13.6042 12.071 13.4628 11.8292C13.1929 11.3685 12.9435 11.2446 12.4448 11.3913C12.3407 11.4225 12.2084 11.6323 12.2236 11.7403C12.2654 12.0398 12.0221 12.3986 12.384 12.6351C12.419 12.6497 12.4574 12.6547 12.495 12.6495L13.947 12.6503ZM16.6011 11.3693C16.487 11.3693 16.373 11.3655 16.2597 11.3693C15.9199 11.3814 15.8796 11.4612 16.056 11.7494C16.1959 11.9775 16.3266 12.2055 16.4825 12.4199C16.55 12.5213 16.6496 12.5971 16.7653 12.6351C17.1804 12.7271 17.2754 12.6305 17.2746 12.1576C17.2701 11.3107 17.3621 11.3655 16.598 11.3693H16.6011Z" fill="#028610"/>
</g>
<defs>
<clipPath id="clip0_6459_4457">
<rect width="30" height="23.7546" fill="white"/>
</clipPath>
</defs>
</svg>
