<svg width="31" height="30" viewBox="0 0 31 30" fill="none" xmlns="http://www.w3.org/2000/svg">
<g clip-path="url(#clip0_6459_4549)">
<path d="M8.44238 30C6.88379 30 5.61816 28.7344 5.61816 27.1758V2.82422C5.61816 1.26562 6.88379 0 8.44238 0H19.9736C21.5322 0 22.7979 1.26562 22.7979 2.82422V27.1816C22.7979 28.7402 21.5322 30.0059 19.9736 30.0059H8.44238V30Z" fill="#525293"/>
<path d="M19.9795 0H14.2139V30H19.9795C21.5322 30 22.7979 28.7344 22.7979 27.1758V2.82422C22.7979 1.26562 21.5322 0 19.9795 0Z" fill="#3D3973"/>
<path d="M21.6377 27.1758C21.6377 28.0957 20.8936 28.834 19.9795 28.834H8.44238C7.52246 28.834 6.78418 28.0898 6.78418 27.1758V2.82422C6.78418 1.9043 7.52832 1.16602 8.44238 1.16602H19.9795C20.8994 1.16602 21.6377 1.91016 21.6377 2.82422V27.1758Z" fill="#E6EAFF"/>
<path d="M19.9795 1.16016H14.2256V28.8398H19.9795C20.8936 28.8398 21.6377 28.0957 21.6377 27.1816V2.82422C21.6377 1.9043 20.8936 1.16016 19.9795 1.16016Z" fill="#CAD4FF"/>
<path d="M22.8037 8.20312L22.7979 11.7012H22.8037C22.9092 11.7012 22.9971 11.6133 22.9971 11.5078V8.39648C22.9971 8.29102 22.9092 8.20312 22.8037 8.20312Z" fill="#3D3973"/>
<path d="M5.61816 9.53906V7.61133C5.5127 7.61133 5.4248 7.69922 5.4248 7.80469V9.33984C5.4248 9.45117 5.5127 9.53906 5.61816 9.53906ZM5.61816 11.7012V9.77344C5.5127 9.77344 5.4248 9.86133 5.4248 9.9668V11.502C5.4248 11.6133 5.5127 11.7012 5.61816 11.7012Z" fill="#3D3973"/>
<path d="M16.9912 27.9199H11.4307C11.2256 27.9199 11.0615 27.7559 11.0615 27.5508C11.0615 27.3457 11.2256 27.1816 11.4307 27.1816H16.9912C17.1963 27.1816 17.3604 27.3457 17.3604 27.5508C17.3604 27.7559 17.1963 27.9199 16.9912 27.9199Z" fill="#525293"/>
<path d="M16.1592 3.14062H12.2627C11.8877 3.14062 11.5889 2.83594 11.5889 2.4668C11.5889 2.0918 11.8936 1.79297 12.2627 1.79297H16.1592C16.5342 1.79297 16.833 2.09766 16.833 2.4668C16.833 2.8418 16.5283 3.14062 16.1592 3.14062Z" fill="#525293"/>
<path d="M16.9912 27.1758H14.208V27.9199H16.9912C17.1963 27.9199 17.3604 27.7559 17.3604 27.5508C17.3604 27.3457 17.1963 27.1758 16.9912 27.1758Z" fill="#3D3973"/>
<path d="M16.6338 2.94141C16.7568 2.81836 16.833 2.64844 16.833 2.46094C16.833 2.08594 16.5283 1.78711 16.1592 1.78711H14.2139V3.14062H16.1592C16.3408 3.14062 16.5107 3.06445 16.6338 2.94141Z" fill="#3D3973"/>
<path d="M18.667 21.9082C22.4823 21.9082 25.5752 18.8153 25.5752 15C25.5752 11.1847 22.4823 8.0918 18.667 8.0918C14.8517 8.0918 11.7588 11.1847 11.7588 15C11.7588 18.8153 14.8517 21.9082 18.667 21.9082Z" fill="#26BAFF"/>
<path d="M18.667 8.0918C16.9736 8.0918 15.4209 8.70117 14.2197 9.71484V20.2852C15.4209 21.2988 16.9736 21.9082 18.667 21.9082C22.4814 21.9082 25.5752 18.8145 25.5752 15C25.5752 11.1855 22.4814 8.0918 18.667 8.0918Z" fill="#0CA8E5"/>
<path d="M18.0404 11.2852V18.7207C18.0404 18.9609 17.8412 19.1602 17.6009 19.1602C17.3607 19.1602 17.1615 18.9609 17.1615 18.7207V12.5801L16.3646 13.6172C16.2181 13.8105 15.9427 13.8457 15.7494 13.6992C15.556 13.5527 15.5209 13.2773 15.6673 13.084L17.2494 11.0156C17.3666 10.8633 17.5599 10.8047 17.7416 10.8691C17.9232 10.9277 18.0404 11.0977 18.0404 11.2852ZM21.5853 16.3008C21.392 16.1543 21.1166 16.1894 20.9701 16.3828L20.1732 17.4199V11.2852C20.1732 11.0449 19.974 10.8457 19.7338 10.8457C19.4935 10.8457 19.2943 11.0449 19.2943 11.2852V18.7207C19.2943 18.9082 19.4115 19.0781 19.5931 19.1367C19.64 19.1543 19.6869 19.1602 19.7338 19.1602C19.8685 19.1602 19.9974 19.1016 20.0853 18.9902L21.6673 16.9219C21.8138 16.7226 21.7787 16.4473 21.5853 16.3008Z" fill="#CAD4FF"/>
</g>
<defs>
<clipPath id="clip0_6459_4549">
<rect width="30" height="30" fill="white" transform="translate(0.5)"/>
</clipPath>
</defs>
</svg>
