<svg width="31" height="30" viewBox="0 0 31 30" fill="none" xmlns="http://www.w3.org/2000/svg">
<mask id="mask0_6459_4514" style="mask-type:luminance" maskUnits="userSpaceOnUse" x="0" y="0" width="31" height="30">
<path d="M0.5 1.90735e-06H30.5V30H0.5V1.90735e-06Z" fill="white"/>
</mask>
<g mask="url(#mask0_6459_4514)">
<path d="M23.9961 1.76602V28.234C23.9961 28.967 23.4025 29.5605 22.6695 29.5605H8.33053C7.67012 29.5605 7.12285 29.0789 7.0209 28.4473C7.00982 28.3781 7.00391 28.3066 7.00391 28.234V1.76602C7.00391 1.03301 7.59746 0.439455 8.33053 0.439455H22.6695C23.4025 0.439455 23.9961 1.03301 23.9961 1.76602Z" fill="#B3F6FF"/>
<path d="M23.9957 1.76602V28.234C23.9957 28.967 23.4021 29.5605 22.6691 29.5605H8.33014C7.66973 29.5605 7.12246 29.0789 7.02051 28.4473H21.2629C21.9959 28.4473 22.5895 27.8537 22.5895 27.1207V1.76602C22.5895 1.03301 21.9959 0.439455 21.2629 0.439455H22.6691C23.4021 0.439455 23.9957 1.03301 23.9957 1.76602Z" fill="#A0DBF2"/>
<path d="M23.9961 27.5098V28.234C23.9961 28.967 23.4025 29.5605 22.6695 29.5605H8.33053C7.67012 29.5605 7.12285 29.0789 7.0209 28.4473C7.00982 28.3781 7.00391 28.3066 7.00391 28.234V27.5098H23.9961Z" fill="#616270"/>
<path d="M19.8945 0.439453V1.73145C19.8945 2.12754 19.5735 2.44922 19.1768 2.44922H11.8232C11.4266 2.44922 11.1055 2.12754 11.1055 1.73145V0.439453H19.8945Z" fill="#616270"/>
<path d="M19.8945 0.735352V1.73145C19.8945 2.12754 19.5735 2.44922 19.1768 2.44922H11.8232C11.4266 2.44922 11.1055 2.12754 11.1055 1.73145V1.45312H19.1768C19.5735 1.45312 19.8945 1.13145 19.8945 0.735352Z" fill="#40414C"/>
<path d="M23.9957 27.5098V28.234C23.9957 28.967 23.4021 29.5605 22.6691 29.5605H8.33014C7.66973 29.5605 7.12246 29.0789 7.02051 28.4473H21.2629C21.8606 28.4473 22.3656 28.0523 22.5314 27.5098H23.9957Z" fill="#40414C"/>
<path d="M20.5188 19.0151L20.1028 19.7088L19.9558 19.9543C19.8058 20.2086 19.5643 20.395 19.2813 20.4758C18.3444 20.7325 16.279 20.7846 12.9679 17.4735C9.65731 14.1623 9.70888 12.0969 9.96552 11.16C10.0464 10.877 10.2327 10.635 10.487 10.4856L10.7565 10.3239L11.4263 9.92191C11.6407 9.79359 11.9179 9.85629 12.0567 10.0643L13.5538 12.3102C13.6897 12.5141 13.6451 12.7883 13.4518 12.9389L12.7768 13.4276C12.594 13.5682 12.5419 13.8207 12.6532 14.0223C12.9004 14.4659 13.1343 14.9897 14.292 16.1493C15.4505 17.3088 15.9755 17.5409 16.419 17.7881C16.6206 17.8995 16.8731 17.8473 17.0138 17.6645L17.5024 16.9895C17.653 16.7961 17.9272 16.7516 18.1311 16.8875L20.377 18.3846C20.585 18.5235 20.6477 18.8006 20.5188 19.0151Z" fill="#51E08B"/>
<path d="M20.5191 19.015L20.1031 19.7087C19.1668 19.9654 17.1301 19.9911 13.8195 16.68C10.5083 13.3689 10.5002 11.2601 10.7568 10.3238L11.4266 9.9218C11.6409 9.79348 11.9182 9.85618 12.057 10.0642L13.5541 12.3101C13.69 12.514 13.6454 12.7882 13.4521 12.9388L12.7771 13.4275C12.5943 13.5681 12.5422 13.8206 12.6535 14.0222C12.9007 14.4657 13.1346 14.9896 14.2923 16.1491C15.4508 17.3087 15.9758 17.5407 16.4193 17.788C16.6209 17.8993 16.8734 17.8472 17.0141 17.6644L17.5027 16.9894C17.6533 16.796 17.9275 16.7515 18.1314 16.8874L20.3773 18.3845C20.5853 18.5234 20.648 18.8005 20.5191 19.015Z" fill="#1BC18A"/>
<path d="M19.4551 1.73145C19.4551 1.88485 19.3303 2.00965 19.1769 2.00965H11.8231C11.6697 2.00965 11.5449 1.88485 11.5449 1.73145V0.878908H19.4551V1.73145ZM23.9961 3.48955C24.2388 3.48955 24.4355 3.2928 24.4355 3.0501V1.76578C24.4355 0.79213 23.6434 1.90735e-06 22.6697 1.90735e-06H8.33029C7.35664 1.90735e-06 6.56445 0.79213 6.56445 1.76578V28.2342C6.56445 29.2079 7.35664 30 8.33029 30H22.6697C23.6434 30 24.4355 29.2079 24.4355 28.2342V5.10281C24.4355 4.86012 24.2388 4.66336 23.9961 4.66336C23.7533 4.66336 23.5566 4.86012 23.5566 5.10281V27.0703H12.1344C11.8916 27.0703 11.6949 27.2671 11.6949 27.5098C11.6949 27.7525 11.8916 27.9492 12.1344 27.9492H23.5566V28.2342C23.5566 28.7232 23.1588 29.1211 22.6697 29.1211H8.33029C7.84121 29.1211 7.44336 28.7232 7.44336 28.2342V27.9492H10.1071C10.3498 27.9492 10.5466 27.7525 10.5466 27.5098C10.5466 27.2671 10.3498 27.0703 10.1071 27.0703H7.44336V1.76578C7.44336 1.27676 7.84121 0.878908 8.33029 0.878908H10.666V1.73145C10.666 2.36947 11.1851 2.88856 11.8231 2.88856H19.1769C19.8149 2.88856 20.334 2.36947 20.334 1.73145V0.878908H22.6697C23.1588 0.878908 23.5566 1.27676 23.5566 1.76578V3.0501C23.5566 3.2928 23.7533 3.48955 23.9961 3.48955Z" fill="black"/>
<path d="M12.2694 14.236C12.2907 14.2743 12.312 14.3132 12.3338 14.3532C12.5778 14.8011 12.8816 15.3584 13.9814 16.4596C15.0788 17.5585 15.6368 17.8621 16.0851 18.1061C16.1262 18.1284 16.1662 18.1502 16.2062 18.1725C16.6009 18.391 17.087 18.2901 17.3621 17.9328C17.3647 17.9293 17.3674 17.9258 17.37 17.9223L17.851 17.2572C17.8606 17.2474 17.876 17.2455 17.8873 17.253L20.1336 18.7505C20.1464 18.759 20.1502 18.776 20.1423 18.7892L19.5769 19.7316C19.4843 19.8888 19.3365 20.003 19.1649 20.0519C17.1186 20.6133 14.5987 18.4828 13.2788 17.1629C11.9588 15.8429 9.82824 13.323 10.3883 11.2806C10.4384 11.1049 10.5526 10.9571 10.7129 10.8627L11.6521 10.2992C11.6568 10.2964 11.6619 10.2951 11.667 10.2951C11.6763 10.2951 11.6854 10.2996 11.691 10.3079L13.1882 12.5538C13.196 12.5654 13.194 12.5809 13.1843 12.5905L12.5193 13.0715C12.5157 13.0741 12.5122 13.0767 12.5087 13.0794C12.1513 13.3546 12.0505 13.8406 12.2694 14.236ZM13.7095 13.2952C13.7137 13.2922 13.7179 13.2891 13.722 13.2859C14.0946 12.9956 14.1816 12.4602 13.9197 12.0666L12.4222 9.82033C12.1531 9.41662 11.6163 9.29586 11.2001 9.54541L10.2638 10.1072C9.91109 10.315 9.65515 10.6462 9.54195 11.044C9.18599 12.3418 9.43753 14.5646 12.6572 17.7844C15.2046 20.3318 17.1278 21.021 18.4647 21.021C18.8175 21.021 19.1296 20.9729 19.4015 20.8984C19.7953 20.7863 20.1266 20.5303 20.3325 20.1806L20.896 19.2413C21.1456 18.8252 21.0249 18.2884 20.6211 18.0192L18.3744 16.5215C17.9813 16.26 17.446 16.3469 17.1556 16.7194C17.1525 16.7235 17.1493 16.7277 17.1462 16.7319L16.664 17.3986C16.6557 17.4073 16.6428 17.4095 16.6327 17.4039C16.5911 17.3808 16.5487 17.3577 16.5052 17.3341C16.1067 17.1172 15.6107 16.8473 14.6033 15.8386C13.5928 14.8268 13.3226 14.331 13.1055 13.9326C13.0825 13.8904 13.06 13.8492 13.0379 13.8095C13.032 13.7987 13.0341 13.7857 13.0429 13.7774L13.7095 13.2952Z" fill="black"/>
<path d="M18.0492 15.2188C18.0492 15.4614 18.2459 15.6582 18.4887 15.6582C18.7314 15.6582 18.9281 15.4614 18.9281 15.2188C18.9281 13.1755 17.2659 11.5133 15.2227 11.5133C14.9799 11.5133 14.7832 11.71 14.7832 11.9527C14.7832 12.1954 14.9799 12.3922 15.2227 12.3922C16.7812 12.3922 18.0492 13.6602 18.0492 15.2188Z" fill="black"/>
<path d="M21.5801 15.2188C21.5801 11.7133 18.7281 8.86133 15.2227 8.86133C14.9799 8.86133 14.7832 9.05809 14.7832 9.30078C14.7832 9.54348 14.9799 9.74023 15.2227 9.74023C18.2435 9.74023 20.7012 12.1979 20.7012 15.2188C20.7012 15.4614 20.8979 15.6582 21.1406 15.6582C21.3834 15.6582 21.5801 15.4614 21.5801 15.2188Z" fill="black"/>
</g>
</svg>
