<svg width="31" height="30" viewBox="0 0 31 30" fill="none" xmlns="http://www.w3.org/2000/svg">
<path d="M5.41037 15.0051C5.41037 10.7726 8.0303 7.14094 11.7333 5.64536L13.6228 1.8501C7.18161 2.76516 2.21191 8.31518 2.21191 15.0051C2.21191 21.0917 6.32563 26.2352 11.9185 27.8025L12.2819 24.5686C8.29158 23.2223 5.41037 19.4439 5.41037 15.0051Z" fill="#FFA800"/>
<path d="M28.7882 15.0053C28.7882 8.91994 24.6763 3.77743 19.0853 2.20898L18.7137 5.44042C22.7064 6.78547 25.5898 10.5649 25.5898 15.0053C25.5898 19.2132 23.0003 22.827 19.3315 24.3387L17.3896 28.1585C23.8248 27.2383 28.7882 21.691 28.7882 15.0053Z" fill="#FFA800"/>
<path d="M23.1063 13.395C23.2323 13.1472 23.2204 12.8751 23.0749 12.6382C22.9296 12.4012 22.6715 12.3068 22.3935 12.3068H16.3143L17.623 0.929551C17.6676 0.543837 17.4285 0.14423 17.0561 0.0336837C16.9792 0.0108947 16.9013 0 16.8245 0C16.5292 0 16.2501 0.168019 16.1127 0.443985L7.89138 16.9636C7.76804 17.2114 7.78164 17.5413 7.92737 17.7768C8.0732 18.0122 8.33027 18.2039 8.60724 18.2039H14.6062L13.3764 29.1529C13.3335 29.5371 13.5714 29.8603 13.9419 29.971C14.0179 29.9938 14.095 30 14.171 30C14.4657 30 14.7448 29.8364 14.884 29.5624L23.1063 13.395Z" fill="#FFA800"/>
</svg>
