<svg width="28" height="27" viewBox="0 0 28 27" fill="none" xmlns="http://www.w3.org/2000/svg">
<g clip-path="url(#clip0_6459_4588)">
<path d="M22.4375 20.25C22.9035 20.25 23.2812 19.8722 23.2812 19.4062C23.2812 18.9403 22.9035 18.5625 22.4375 18.5625C21.9715 18.5625 21.5938 18.9403 21.5938 19.4062C21.5938 19.8722 21.9715 20.25 22.4375 20.25Z" fill="#3EAE4A"/>
<path d="M4.71875 11.8125H14.8438V20.25H4.71875V11.8125Z" fill="#3EAE4A"/>
<path d="M22.4375 13.5C22.9035 13.5 23.2812 13.1222 23.2812 12.6562C23.2812 12.1903 22.9035 11.8125 22.4375 11.8125C21.9715 11.8125 21.5938 12.1903 21.5938 12.6562C21.5938 13.1222 21.9715 13.5 22.4375 13.5Z" fill="#3EAE4A"/>
<path d="M24.9688 6.75H3.03125C2.36015 6.75074 1.71674 7.01766 1.2422 7.4922C0.767658 7.96674 0.500737 8.61015 0.5 9.28125L0.5 22.7812C0.500737 23.4524 0.767658 24.0958 1.2422 24.5703C1.71674 25.0448 2.36015 25.3118 3.03125 25.3125H24.9688C25.6399 25.3118 26.2833 25.0448 26.7578 24.5703C27.2323 24.0958 27.4993 23.4524 27.5 22.7812V9.28125C27.4993 8.61015 27.2323 7.96674 26.7578 7.4922C26.2833 7.01766 25.6399 6.75074 24.9688 6.75ZM16.5312 21.0938C16.5312 21.3175 16.4424 21.5321 16.2841 21.6904C16.1259 21.8486 15.9113 21.9375 15.6875 21.9375H3.875C3.65122 21.9375 3.43661 21.8486 3.27838 21.6904C3.12014 21.5321 3.03125 21.3175 3.03125 21.0938V10.9688C3.03125 10.745 3.12014 10.5304 3.27838 10.3721C3.43661 10.2139 3.65122 10.125 3.875 10.125H15.6875C15.9113 10.125 16.1259 10.2139 16.2841 10.3721C16.4424 10.5304 16.5312 10.745 16.5312 10.9688V21.0938ZM22.4375 21.9375C21.9369 21.9375 21.4475 21.789 21.0312 21.5109C20.615 21.2328 20.2905 20.8374 20.0989 20.3749C19.9073 19.9124 19.8572 19.4034 19.9549 18.9124C20.0526 18.4214 20.2936 17.9704 20.6476 17.6164C21.0016 17.2624 21.4527 17.0213 21.9437 16.9236C22.4347 16.826 22.9436 16.8761 23.4062 17.0677C23.8687 17.2593 24.264 17.5837 24.5422 18C24.8203 18.4162 24.9688 18.9056 24.9688 19.4062C24.968 20.0774 24.7011 20.7208 24.2265 21.1953C23.752 21.6698 23.1086 21.9368 22.4375 21.9375ZM22.4375 15.1875C21.9369 15.1875 21.4475 15.039 21.0312 14.7609C20.615 14.4828 20.2905 14.0874 20.0989 13.6249C19.9073 13.1624 19.8572 12.6534 19.9549 12.1624C20.0526 11.6714 20.2936 11.2204 20.6476 10.8664C21.0016 10.5124 21.4527 10.2713 21.9437 10.1736C22.4347 10.076 22.9436 10.1261 23.4062 10.3177C23.8687 10.5093 24.264 10.8337 24.5422 11.25C24.8203 11.6662 24.9688 12.1556 24.9688 12.6562C24.968 13.3274 24.7011 13.9708 24.2265 14.4453C23.752 14.9198 23.1086 15.1868 22.4375 15.1875Z" fill="#3EAE4A"/>
<path d="M14.4976 5.0625H6.75195C6.87719 4.78635 7.02983 4.52347 7.20758 4.27781C7.5402 3.81857 7.96205 3.43116 8.44789 3.13875C9.10446 2.74134 9.85729 2.53125 10.6248 2.53125C11.3922 2.53125 12.1451 2.74134 12.8016 3.13875C13.2875 3.43116 13.7093 3.81857 14.042 4.27781C14.2197 4.52347 14.3723 4.78635 14.4976 5.0625Z" fill="#3EAE4A"/>
<path d="M8.91216 4.88544C8.82534 4.96634 8.72157 5.02687 8.60841 5.06263H8.09372C7.94864 5.02874 7.8184 4.94882 7.72248 4.83482L7.20779 4.27794L4.57529 1.41763C4.42312 1.25316 4.34252 1.03497 4.35122 0.811067C4.35993 0.587166 4.45722 0.375893 4.62169 0.223725C4.78617 0.0715566 5.00436 -0.00904125 5.22826 -0.000338389C5.45216 0.00836447 5.66343 0.105655 5.8156 0.270131L8.4481 3.13888L8.96279 3.69576C9.03768 3.77714 9.0958 3.8725 9.13379 3.97637C9.17179 4.08025 9.18893 4.19059 9.18422 4.3011C9.17952 4.4116 9.15307 4.5201 9.10639 4.62037C9.0597 4.72064 8.9937 4.81071 8.91216 4.88544Z" fill="#3EAE4A"/>
<path d="M16.6751 1.41763L14.0426 4.27794L13.5279 4.83482C13.4338 4.94679 13.3069 5.02646 13.1651 5.06263H12.642C12.5288 5.02687 12.4251 4.96634 12.3383 4.88544C12.2567 4.81071 12.1907 4.72064 12.144 4.62037C12.0973 4.5201 12.0709 4.4116 12.0662 4.3011C12.0615 4.19059 12.0786 4.08025 12.1166 3.97637C12.1546 3.8725 12.2127 3.77714 12.2876 3.69576L12.8023 3.13888L15.4348 0.270131C15.587 0.105655 15.7983 0.00836447 16.0222 -0.000338389C16.2461 -0.00904125 16.4642 0.0715566 16.6287 0.223725C16.7932 0.375893 16.8905 0.587166 16.8992 0.811067C16.9079 1.03497 16.8273 1.25316 16.6751 1.41763Z" fill="#3EAE4A"/>
<path d="M3.875 27C3.65122 27 3.43661 26.9111 3.27838 26.7529C3.12014 26.5946 3.03125 26.38 3.03125 26.1562V23.625C3.03125 23.4012 3.12014 23.1866 3.27838 23.0284C3.43661 22.8701 3.65122 22.7812 3.875 22.7812C4.09878 22.7812 4.31339 22.8701 4.47162 23.0284C4.62986 23.1866 4.71875 23.4012 4.71875 23.625V26.1562C4.71875 26.38 4.62986 26.5946 4.47162 26.7529C4.31339 26.9111 4.09878 27 3.875 27Z" fill="#3EAE4A"/>
<path d="M24.125 27C23.9012 27 23.6866 26.9111 23.5284 26.7529C23.3701 26.5946 23.2812 26.38 23.2812 26.1562V23.625C23.2812 23.4012 23.3701 23.1866 23.5284 23.0284C23.6866 22.8701 23.9012 22.7812 24.125 22.7812C24.3488 22.7812 24.5634 22.8701 24.7216 23.0284C24.8799 23.1866 24.9688 23.4012 24.9688 23.625V26.1562C24.9688 26.38 24.8799 26.5946 24.7216 26.7529C24.5634 26.9111 24.3488 27 24.125 27Z" fill="#3EAE4A"/>
</g>
<defs>
<clipPath id="clip0_6459_4588">
<rect width="27" height="27" fill="white" transform="translate(0.5)"/>
</clipPath>
</defs>
</svg>
