<svg width="31" height="30" viewBox="0 0 31 30" fill="none" xmlns="http://www.w3.org/2000/svg">
<g clip-path="url(#clip0_6459_4485)">
<path fill-rule="evenodd" clip-rule="evenodd" d="M15.5146 0.0141602C23.7988 0.0141602 30.5146 6.73035 30.5146 15.0146C30.5146 23.2988 23.7989 30.0146 15.5146 30.0146C7.23043 30.0146 0.514648 23.2984 0.514648 15.0146C0.514648 6.73076 7.23043 0.0141602 15.5146 0.0141602ZM18.9146 11.1811C18.6866 11.7972 18.3319 12.3586 17.8733 12.8289C17.4147 13.2993 16.8625 13.6681 16.2523 13.9115H20.2061V11.2507C20.2059 11.2324 20.1985 11.2148 20.1855 11.2018C20.1726 11.1888 20.1551 11.1814 20.1367 11.1811H18.9146ZM12.7967 13.9115C12.1865 13.6682 11.6343 13.2994 11.1758 12.8291C10.7173 12.3587 10.3627 11.7972 10.135 11.1811H9.08779C8.72571 11.1811 8.37846 11.3249 8.12243 11.5809C7.86639 11.837 7.72256 12.1842 7.72256 12.5463C7.72256 12.9084 7.86639 13.2556 8.12243 13.5117C8.37846 13.7677 8.72571 13.9115 9.08779 13.9115H12.7967ZM17.2587 6.83043C16.6261 6.19788 15.7938 5.80423 14.9036 5.71655C14.0134 5.62886 13.1202 5.85257 12.3764 6.34955C11.6326 6.84653 11.0842 7.58604 10.8245 8.44207C10.5648 9.2981 10.61 10.2177 10.9523 11.0442C11.2946 11.8706 11.9129 12.5528 12.7018 12.9745C13.4907 13.3962 14.4015 13.5314 15.2788 13.3569C16.1562 13.1824 16.9459 12.709 17.5134 12.0176C18.081 11.3261 18.3912 10.4592 18.3912 9.56465C18.3919 9.05675 18.2922 8.55373 18.0979 8.08449C17.9035 7.61525 17.6183 7.18906 17.2587 6.83043ZM9.74814 22.7652H14.3353C14.4428 22.7652 14.5459 22.7225 14.6219 22.6465C14.6979 22.5705 14.7406 22.4674 14.7406 22.3599C14.7406 22.2525 14.6979 22.1494 14.6219 22.0734C14.5459 21.9973 14.4428 21.9546 14.3353 21.9546H9.74814C9.64065 21.9546 9.53757 21.9973 9.46156 22.0734C9.38555 22.1494 9.34285 22.2525 9.34285 22.3599C9.34285 22.4674 9.38555 22.5705 9.46156 22.6465C9.53757 22.7225 9.64065 22.7652 9.74814 22.7652ZM21.4803 19.9315H21.4909C21.5441 19.9315 21.5968 19.921 21.646 19.9006C21.6951 19.8803 21.7398 19.8504 21.7774 19.8128C21.815 19.7752 21.8449 19.7305 21.8652 19.6813C21.8856 19.6322 21.8961 19.5795 21.8961 19.5263C21.8961 19.4731 21.8856 19.4204 21.8652 19.3712C21.8449 19.3221 21.815 19.2774 21.7774 19.2398C21.7398 19.2022 21.6951 19.1723 21.646 19.152C21.5968 19.1316 21.5441 19.1211 21.4909 19.1211H21.4803C21.427 19.1211 21.3744 19.1316 21.3252 19.152C21.276 19.1723 21.2314 19.2022 21.1938 19.2398C21.1561 19.2774 21.1263 19.3221 21.1059 19.3712C21.0856 19.4204 21.0751 19.4731 21.0751 19.5263C21.0751 19.5795 21.0856 19.6322 21.1059 19.6813C21.1263 19.7305 21.1561 19.7752 21.1938 19.8128C21.2314 19.8504 21.276 19.8803 21.3252 19.9006C21.3744 19.921 21.427 19.9315 21.4803 19.9315ZM23.3066 18.1502H21.0406C20.6773 18.1526 20.3296 18.2986 20.0735 18.5564C19.8174 18.8142 19.6736 19.1628 19.6736 19.5261C19.6736 19.8895 19.8174 20.2381 20.0735 20.4959C20.3296 20.7537 20.6773 20.8997 21.0406 20.9021H23.3066V18.1504V18.1502ZM21.0406 17.3401H22.0948V14.7912C22.0947 14.7729 22.0874 14.7555 22.0746 14.7425C22.0616 14.7295 22.0441 14.722 22.0257 14.7217H9.08779C8.59057 14.722 8.10843 14.551 7.72256 14.2374V22.9654C7.7241 23.3271 7.86843 23.6734 8.12413 23.9291C8.37983 24.1848 8.72618 24.3291 9.08779 24.3307H22.0257C22.0441 24.3304 22.0616 24.3229 22.0746 24.3099C22.0875 24.2969 22.0948 24.2793 22.0948 24.261V21.7122H21.0406C20.4609 21.7122 19.9048 21.4819 19.4949 21.0719C19.0849 20.662 18.8546 20.1059 18.8546 19.5262C18.8546 18.9464 19.0849 18.3904 19.4949 17.9804C19.9048 17.5705 20.4609 17.3401 21.0406 17.3401ZM16.0027 9.74324L14.9296 10.8164V7.33492C14.9296 7.28173 14.9191 7.22906 14.8988 7.17991C14.8784 7.13077 14.8486 7.08611 14.811 7.0485C14.7733 7.01089 14.7287 6.98105 14.6795 6.9607C14.6304 6.94034 14.5777 6.92986 14.5245 6.92986C14.4713 6.92986 14.4187 6.94034 14.3695 6.9607C14.3204 6.98105 14.2757 7.01089 14.2381 7.0485C14.2005 7.08611 14.1707 7.13077 14.1503 7.17991C14.1299 7.22906 14.1195 7.28173 14.1195 7.33492V10.8166L13.0468 9.74342C12.9709 9.66743 12.8678 9.62473 12.7604 9.62471C12.653 9.62468 12.5499 9.66733 12.474 9.74327C12.398 9.81921 12.3553 9.92223 12.3552 10.0297C12.3552 10.1371 12.3979 10.2401 12.4738 10.3161L14.238 12.0808C14.3141 12.1567 14.4171 12.1992 14.5245 12.1992C14.6319 12.1992 14.7349 12.1567 14.811 12.0808L16.5755 10.3161C16.6501 10.2399 16.6917 10.1373 16.6911 10.0306C16.6905 9.92396 16.6479 9.82182 16.5725 9.74639C16.497 9.67097 16.3949 9.62835 16.2882 9.62779C16.1815 9.62724 16.0789 9.66879 16.0027 9.74342V9.74324Z" fill="#32A353"/>
</g>
<defs>
<clipPath id="clip0_6459_4485">
<rect width="30" height="30" fill="white" transform="translate(0.5)"/>
</clipPath>
</defs>
</svg>
