<svg width="33" height="32" viewBox="0 0 33 32" fill="none" xmlns="http://www.w3.org/2000/svg">
<path d="M26.5 3H6.5C5.70508 3.00237 4.9434 3.31921 4.3813 3.8813C3.81921 4.4434 3.50237 5.20508 3.5 6V12C3.50237 12.7949 3.81921 13.5566 4.3813 14.1187C4.9434 14.6808 5.70508 14.9976 6.5 15H7.5V10C7.23478 10 6.98043 9.89464 6.79289 9.70711C6.60536 9.51957 6.5 9.26522 6.5 9C6.5 8.73478 6.60536 8.48043 6.79289 8.29289C6.98043 8.10536 7.23478 8 7.5 8H25.5C25.7652 8 26.0196 8.10536 26.2071 8.29289C26.3946 8.48043 26.5 8.73478 26.5 9C26.5 9.26522 26.3946 9.51957 26.2071 9.70711C26.0196 9.89464 25.7652 10 25.5 10V15H26.5C27.2949 14.9976 28.0566 14.6808 28.6187 14.1187C29.1808 13.5566 29.4976 12.7949 29.5 12V6C29.4976 5.20508 29.1808 4.4434 28.6187 3.8813C28.0566 3.31921 27.2949 3.00237 26.5 3Z" fill="#3EAE4A"/>
<path d="M9.5 26C9.50237 26.7949 9.81921 27.5566 10.3813 28.1187C10.9434 28.6808 11.7051 28.9976 12.5 29H20.5C21.2949 28.9976 22.0566 28.6808 22.6187 28.1187C23.1808 27.5566 23.4976 26.7949 23.5 26V10H9.5V26ZM12.793 18.293C12.9805 18.1055 13.2348 18.0002 13.5 18.0002C13.7652 18.0002 14.0195 18.1055 14.207 18.293L15.5 19.586V15C15.5 14.7348 15.6054 14.4804 15.7929 14.2929C15.9804 14.1054 16.2348 14 16.5 14C16.7652 14 17.0196 14.1054 17.2071 14.2929C17.3946 14.4804 17.5 14.7348 17.5 15V19.586L18.793 18.293C18.9816 18.1108 19.2342 18.01 19.4964 18.0123C19.7586 18.0146 20.0094 18.1198 20.1948 18.3052C20.3802 18.4906 20.4854 18.7414 20.4877 19.0036C20.49 19.2658 20.3892 19.5184 20.207 19.707L17.207 22.707C17.0195 22.8945 16.7652 22.9998 16.5 22.9998C16.2348 22.9998 15.9805 22.8945 15.793 22.707L12.793 19.707C12.6055 19.5195 12.5002 19.2652 12.5002 19C12.5002 18.7348 12.6055 18.4805 12.793 18.293Z" fill="#3EAE4A"/>
</svg>
